<svg width="336" height="605" xmlns="http://www.w3.org/2000/svg" xmlns:xlink="http://www.w3.org/1999/xlink" overflow="hidden"><defs><clipPath id="clip0"><rect x="808" y="116" width="336" height="605"/></clipPath></defs><g clip-path="url(#clip0)" transform="translate(-808 -116)"><rect x="980" y="282" width="41" height="37" fill="#FFA94B"/><path d="M923 222.5C923 179.698 957.474 145 1000 145 1042.53 145 1077 179.698 1077 222.5 1077 265.302 1042.53 300 1000 300 957.474 300 923 265.302 923 222.5Z" fill="#FFC789" fill-rule="evenodd"/><path d="M934 487 1066 487 1066 720 1012.92 720 997.579 539.494 989.495 720 934 720Z" fill="#140B59" fill-rule="evenodd"/><path d="M0 18.2502C-2.51286e-15 8.17091 8.17093-5.02571e-15 18.2503-5.02571e-15L18.2503 0C28.3296-5.02571e-15 36.5006 8.17091 36.5006 18.2502L36.5005 60.7001C36.5005 70.7794 28.3295 78.9503 18.2502 78.9503L18.2503 78.9502C8.17093 78.9502-5.02572e-15 70.7793-5.02572e-15 60.7Z" fill="#FFC789" fill-rule="evenodd" transform="matrix(-0.764091 0.645108 0.645108 0.764091 1099.82 364.211)"/><path d="M882.114 385.568C888.617 377.867 900.131 376.894 907.833 383.397L907.833 383.397C915.534 389.899 916.506 401.413 910.004 409.115L840.841 491.034C834.339 498.735 822.825 499.708 815.123 493.205L815.123 493.205C807.422 486.703 806.45 475.189 812.952 467.487Z" fill="#FFC789" fill-rule="evenodd"/><path d="M176.773 0 64.5447 0.000103672C59.0788 0.000103672 54.1304 2.22077 50.5484 5.81094L49.3854 7.53999 49.2599 7.38987 44.1368 13.7097 0 65.4537 0.394079 70.9836 1.82973 69.7365 1.71595 70.3226C1.71595 72.2463 2.44805 74.1699 3.91234 75.6376L25.1227 96.8969C28.0513 99.8322 32.7993 99.8322 35.7278 96.8969L44.751 87.8528 44.751 163.16C44.751 174.118 53.6129 183 64.5447 183L176.773 183C187.705 183 196.567 174.118 196.567 163.16L196.567 85.4494 207.988 96.8969C210.917 99.8322 215.665 99.8322 218.593 96.8969L239.803 75.6376C242 73.436 242.549 70.2087 241.451 67.4942L240.607 66.2205 240.662 65.4537 196.525 13.7097 193.927 10.5053 190.77 5.81094C187.188 2.22066 182.239 0 176.773 0Z" fill="#FAFAFA" fill-rule="evenodd" transform="matrix(-1 0 0 1 1122 315)"/><path d="M0 18C-2.3553e-15 8.05887 8.28273-2.29164e-15 18.5-4.58328e-15 28.7173-9.16656e-15 37 8.05887 37 18 37 27.9411 28.7173 36 18.5 36 8.28273 36-1.17765e-14 27.9411 0 18Z" fill="#F1AB77" fill-rule="evenodd" transform="matrix(-1 0 0 1 1064 142)"/><path d="M20.8694 31.4508 20.222 32.2897 20.5454 32.1917C26.2134 32.0839 40.3363 44.2791 42.0839 54.7951L42.0631 56.0995 42.9706 56.3088C42.9604 56.9509 42.95 57.593 42.9398 58.2351 41.3589 65.1998 29.3915 79.7163 19.0569 89.6544L18.8965 89.7986 18.1315 90.5776C11.9307 96.5404 6.31757 100.855 3.88838 100.901-2.58934 101.024 0.371905 71.3487 3.14807 59.8971 4.53616 54.1713 7.26613 47.2758 10.4586 41.7962L14.0766 36.8769 14.4859 36.2298 14.6997 36.0296 15.4848 34.9622 17.6773 33.2419 18.9773 32.0246ZM85.5146 0C120.012 0 153.252 29.3112 161.448 43.1431 169.643 56.975 167.482 80.514 168 82.9918 166.285 86.1773 163.309 103.504 159.354 105.888 155.399 108.273 154.788 71.7799 146.213 65.7156 137.638 59.6512 124.652 70.9642 107.902 69.502 91.1526 68.0398 55.4891 61.4191 45.716 56.9422L42.9706 56.3088C42.9835 55.4965 42.9964 54.6841 43.0093 53.8719 41.2617 43.3559 27.1388 31.1607 21.4708 31.2685L20.8694 31.4508 23.1194 28.5347C25.8701 25.1664 29.3491 21.2333 33.3451 17.1954L39.4359 11.7256 46.6127 7.83809C58.5696 2.7909 71.7155 0 85.5146 0Z" fill="#482424" fill-rule="evenodd" transform="matrix(-1 0 0 1 1081 117)"/><rect x="993" y="315" width="8" height="183" fill="#F2F2F2"/><path d="M994 328.5C994 327.119 995.119 326 996.5 326 997.881 326 999 327.119 999 328.5 999 329.881 997.881 331 996.5 331 995.119 331 994 329.881 994 328.5Z" fill="#BFBFBF" fill-rule="evenodd"/><path d="M994 363.5C994 362.119 995.119 361 996.5 361 997.881 361 999 362.119 999 363.5 999 364.881 997.881 366 996.5 366 995.119 366 994 364.881 994 363.5Z" fill="#BFBFBF" fill-rule="evenodd"/><path d="M994 432.5C994 431.119 995.119 430 996.5 430 997.881 430 999 431.119 999 432.5 999 433.881 997.881 435 996.5 435 995.119 435 994 433.881 994 432.5Z" fill="#BFBFBF" fill-rule="evenodd"/><path d="M994 467.5C994 466.119 995.119 465 996.5 465 997.881 465 999 466.119 999 467.5 999 468.881 997.881 470 996.5 470 995.119 470 994 468.881 994 467.5Z" fill="#BFBFBF" fill-rule="evenodd"/><path d="M994 398C994 396.343 995.119 395 996.5 395 997.881 395 999 396.343 999 398 999 399.657 997.881 401 996.5 401 995.119 401 994 399.657 994 398Z" fill="#BFBFBF" fill-rule="evenodd"/><path d="M1018 355 1055 355 1055 387 1036.5 395 1018 387Z" fill="#F2F2F2" fill-rule="evenodd"/><path d="M1031.01 385.75C1031.03 385.608 1031.04 385.359 1031.04 385.187 1031.04 384.956 1031.08 384.838 1031.19 384.713 1031.32 384.559 1031.36 384.553 1031.89 384.547 1032.44 384.535 1032.45 384.535 1032.61 384.352 1032.7 384.251 1032.87 384.127 1033 384.073 1033.12 384.026 1033.28 383.937 1033.34 383.878 1033.4 383.824 1033.6 383.658 1033.79 383.51 1033.98 383.362 1034.29 383.113 1034.49 382.959L1034.84 382.669 1034.89 382.23C1034.93 381.81 1034.92 381.756 1034.7 381.211 1034.58 380.897 1034.46 380.583 1034.43 380.518 1034.21 380.05 1034.09 378.574 1034.19 377.644 1034.29 376.696 1034.81 375.185 1035.19 374.74 1035.32 374.592 1035.49 373.579 1035.42 373.389 1035.37 373.241 1035.34 373.229 1035.02 373.223 1034.54 373.223 1034.37 373.087 1034.26 372.642 1034.18 372.34 1034.18 372.275 1034.27 372.103 1034.34 371.967 1034.42 371.896 1034.55 371.866 1034.76 371.824 1034.81 371.623 1034.63 371.558 1034.57 371.534 1034.49 371.481 1034.44 371.439 1034.4 371.398 1034.33 371.362 1034.29 371.362 1034.25 371.362 1034.15 371.297 1034.06 371.214 1033.83 371.007 1033.22 370.254 1033.22 370.183 1033.22 370.147 1033.13 369.988 1033 369.822 1032.65 369.336 1032.62 369.039 1032.9 368.773 1032.99 368.684 1033.28 368.672 1033.28 368.755 1033.28 368.785 1033.41 368.879 1033.57 368.968 1033.73 369.057 1033.92 369.188 1034.01 369.259 1034.18 369.413 1034.6 369.596 1034.98 369.697 1035.13 369.739 1035.34 369.827 1035.45 369.887 1035.76 370.059 1035.84 369.928 1035.73 369.413 1035.7 369.247 1035.71 369.193 1035.85 369.075 1036.02 368.909 1036.04 368.796 1035.94 368.239 1035.88 367.913 1035.88 367.848 1035.97 367.753 1036.02 367.694 1036.07 367.623 1036.07 367.588 1036.07 367.505 1035.74 367.392 1035.52 367.392 1035.42 367.392 1035.34 367.374 1035.33 367.351 1035.32 367.321 1035.12 367.238 1034.89 367.161 1033.53 366.699 1032.85 366.284 1032.01 365.395 1031.34 364.672 1031.27 364.548 1031.46 364.352 1031.63 364.174 1031.63 363.896 1031.46 363.564 1031.32 363.297 1031.35 363.202 1031.6 363.108 1031.68 363.078 1031.71 363.001 1031.71 362.817 1031.71 362.551 1031.84 362.296 1031.98 362.296 1032.1 362.296 1032.25 362.497 1032.26 362.657 1032.27 362.77 1032.28 362.758 1032.32 362.598 1032.38 362.325 1032.33 361.952 1032.19 361.685 1032.06 361.437 1032.04 361.051 1032.15 360.945 1032.3 360.791 1032.44 360.868 1032.57 361.17 1032.64 361.336 1032.72 361.466 1032.75 361.466 1032.79 361.466 1032.79 361.419 1032.77 361.365 1032.75 361.306 1032.73 361.034 1032.73 360.761 1032.74 360.234 1032.82 360.044 1033.04 360.044 1033.17 360.044 1033.34 360.287 1033.34 360.459 1033.34 360.637 1033.51 360.601 1033.54 360.417 1033.59 360.192 1033.71 360.056 1033.89 360.014 1034.15 359.961 1034.21 360.044 1034.11 360.328 1034.06 360.465 1034.04 360.589 1034.06 360.601 1034.13 360.642 1034.19 360.577 1034.19 360.453 1034.19 360.394 1034.25 360.305 1034.32 360.257 1034.49 360.145 1034.67 360.228 1034.67 360.417 1034.67 360.488 1034.73 360.583 1034.8 360.619 1034.9 360.69 1034.9 360.708 1034.83 360.939 1034.7 361.282 1034.7 361.288 1034.98 361.288 1035.24 361.288 1035.35 361.401 1035.23 361.543 1035.12 361.668 1034.98 362.13 1035.03 362.231 1035.04 362.284 1035.12 362.367 1035.18 362.42 1035.3 362.515 1035.3 362.527 1035.2 362.841 1035.07 363.244 1035.07 363.309 1035.19 363.137 1035.3 362.989 1035.51 362.965 1035.56 363.102 1035.61 363.214 1035.52 363.416 1035.24 363.825 1035.01 364.156 1034.99 364.352 1035.19 364.322 1035.52 364.269 1037.35 364.192 1038.76 364.162 1040.1 364.139 1041.43 364.056 1042.54 363.925 1042.99 363.866 1042.98 363.819 1042.99 365.508 1043 366.331 1042.99 367.108 1042.97 367.238 1042.96 367.404 1042.87 367.54 1042.68 367.73L1042.42 367.996 1042.41 368.565C1042.41 368.885 1042.4 369.65 1042.39 370.266 1042.37 370.888 1042.36 371.617 1042.36 371.896L1042.36 372.399 1042.14 372.583 1041.92 372.767 1041.91 373.519 1041.9 374.272 1041.61 374.539C1041.39 374.746 1041.29 374.805 1041.16 374.787L1041 374.77 1041 373.97C1041 373.531 1041.03 372.47 1041.06 371.611 1041.09 370.42 1041.09 370.059 1041.03 370.059 1040.99 370.059 1040.87 370.136 1040.77 370.236 1040.55 370.426 1040.12 370.651 1039.96 370.651 1039.89 370.651 1039.69 370.734 1039.51 370.823 1039.33 370.918 1039.06 371.06 1038.91 371.131L1038.64 371.268 1039.24 371.309C1039.88 371.35 1040.06 371.392 1040.06 371.505 1040.06 371.54 1040.17 371.647 1040.31 371.736 1040.45 371.836 1040.54 371.937 1040.53 371.996 1040.51 372.091 1040.16 372.233 1039.51 372.411 1039.17 372.506 1038.85 372.702 1038.62 372.962 1038.51 373.093 1038.49 373.182 1038.49 373.644 1038.49 374.355 1038.58 374.924 1038.69 374.989 1038.75 375.019 1038.79 375.084 1038.79 375.131 1038.79 375.179 1038.85 375.362 1038.93 375.528 1039.36 376.417 1039.54 377.413 1039.49 378.497 1039.44 379.457 1039.43 379.522 1039.38 379.576 1039.35 379.599 1039.33 379.676 1039.33 379.741 1039.33 379.89 1038.95 380.82 1038.72 381.235 1038.58 381.478 1038.55 381.614 1038.54 382.005 1038.53 382.26 1038.55 382.527 1038.56 382.592 1038.61 382.734 1039.36 383.255 1039.99 383.587 1040.23 383.712 1040.45 383.866 1040.48 383.931 1040.52 383.99 1040.66 384.103 1040.8 384.168 1040.94 384.239 1041.12 384.346 1041.2 384.405 1041.32 384.494 1041.45 384.518 1041.84 384.518 1042.48 384.518 1042.53 384.565 1042.53 385.14 1042.53 385.371 1042.53 385.584 1042.54 385.614 1042.54 385.65 1042.55 385.744 1042.54 385.839L1042.54 385.999 1036.77 385.999 1031 385.999 1031.01 385.75ZM1037.18 384.144C1037.62 384.15 1038.19 384.162 1038.45 384.174 1038.72 384.186 1038.97 384.174 1039.01 384.144 1039.22 384.014 1038.78 383.641 1038.08 383.35 1037.9 383.279 1037.68 383.167 1037.59 383.101 1037.03 382.716 1036.25 382.657 1035.74 382.959 1034.65 383.635 1034.43 383.795 1034.43 383.919 1034.43 384.091 1034.51 384.115 1035.21 384.144 1035.56 384.162 1035.87 384.186 1035.88 384.204 1035.9 384.221 1036.02 384.21 1036.16 384.18 1036.29 384.156 1036.76 384.138 1037.18 384.144ZM1036.79 381.632 1036.99 381.596 1036.95 381.116C1036.88 380.352 1036.84 380.221 1036.67 380.221 1036.56 380.221 1036.51 380.269 1036.45 380.458 1036.41 380.589 1036.33 380.826 1036.25 380.98 1036.13 381.264 1036.09 381.555 1036.17 381.632 1036.22 381.685 1036.54 381.685 1036.79 381.632ZM1035.91 380.63C1036.04 380.506 1036.03 380.352 1035.88 380.263 1035.78 380.198 1035.76 380.127 1035.76 379.463 1035.76 379.066 1035.74 378.681 1035.73 378.61 1035.64 378.307 1035.51 378.515 1035.36 379.184 1035.24 379.73 1035.1 380.63 1035.14 380.684 1035.19 380.767 1035.81 380.731 1035.91 380.63ZM1038.34 380.613C1038.52 380.512 1038.66 380.221 1038.58 380.144 1038.56 380.127 1038.28 380.139 1037.96 380.168 1037.37 380.221 1037.37 380.221 1037.35 380.387 1037.33 380.524 1037.36 380.565 1037.53 380.636 1037.81 380.755 1038.12 380.743 1038.34 380.613ZM1038.18 379.605C1038.38 379.528 1038.51 379.416 1038.65 379.214 1038.82 378.977 1038.85 378.882 1038.85 378.58 1038.85 378.112 1038.75 377.94 1038.35 377.744 1037.85 377.496 1037.46 377.543 1037.46 377.857 1037.46 378.023 1037.55 378.1 1037.85 378.147 1038.36 378.23 1038.61 378.414 1038.61 378.728 1038.61 379.018 1038.09 379.279 1037.36 379.362 1036.89 379.41 1036.8 379.404 1036.56 379.303 1036.36 379.214 1036.27 379.202 1036.21 379.25 1036.09 379.344 1036.11 379.581 1036.23 379.653 1036.29 379.688 1036.69 379.712 1037.12 379.712 1037.74 379.712 1037.97 379.688 1038.18 379.605ZM1034.98 379.03C1034.98 378.947 1034.95 378.894 1034.92 378.918 1034.89 378.936 1034.86 379.007 1034.86 379.072 1034.86 379.131 1034.89 379.184 1034.92 379.184 1034.95 379.184 1034.98 379.113 1034.98 379.03ZM1036.95 378.9C1036.99 378.876 1037.04 378.539 1037.06 378.118 1037.14 376.939 1037.14 376.808 1037.02 376.731 1036.82 376.613 1036.74 376.79 1036.71 377.436 1036.69 377.762 1036.66 378.213 1036.63 378.432 1036.6 378.752 1036.61 378.853 1036.68 378.894 1036.78 378.959 1036.86 378.959 1036.95 378.9ZM1036.25 377.845C1036.35 377.59 1036.23 377.501 1035.84 377.549 1035.52 377.584 1035.5 377.579 1035.3 377.377 1035.07 377.158 1035.07 377.158 1035.19 376.624 1035.22 376.518 1035.21 376.459 1035.16 376.459 1034.95 376.459 1034.82 377.478 1035.01 377.667 1035.16 377.816 1035.35 377.899 1035.61 377.946 1036.1 378.023 1036.19 378.011 1036.25 377.845ZM1035.99 376.743C1036.13 376.37 1036.26 375.617 1036.19 375.552 1036.16 375.522 1036.02 375.51 1035.88 375.522L1035.61 375.54 1035.62 375.807C1035.63 375.955 1035.65 376.233 1035.67 376.429 1035.74 377.152 1035.81 377.217 1035.99 376.743ZM1038.68 376.547C1038.68 376.453 1038.62 376.328 1038.55 376.275 1038.35 376.109 1037.61 375.984 1037.12 376.032 1036.76 376.067 1036.7 376.091 1036.7 376.192 1036.7 376.293 1036.75 376.316 1036.97 376.328 1037.12 376.34 1037.51 376.435 1037.82 376.547 1038.13 376.654 1038.46 376.743 1038.55 376.737 1038.67 376.725 1038.7 376.702 1038.68 376.547ZM1037.34 375.321C1037.51 375.131 1037.58 374.847 1037.48 374.764 1037.37 374.681 1036.7 374.693 1036.7 374.77 1036.7 374.805 1036.74 374.936 1036.78 375.066 1036.83 375.196 1036.87 375.339 1036.88 375.38 1036.92 375.499 1037.2 375.463 1037.34 375.321ZM1037.74 373.176C1038.01 373.045 1038.29 372.844 1038.55 372.589 1038.79 372.358 1039.02 372.186 1039.13 372.162 1039.46 372.097 1039.76 371.99 1039.8 371.937 1039.86 371.836 1039.66 371.712 1039.36 371.682 1039.16 371.659 1038.89 371.682 1038.62 371.742 1038.18 371.836 1037.63 371.86 1037.44 371.789 1037.33 371.742 1037.01 371.493 1036.62 371.149 1036.46 371.013 1036.28 370.882 1036.2 370.865 1036.13 370.841 1036.02 370.758 1035.95 370.675 1035.89 370.598 1035.81 370.533 1035.79 370.533 1035.76 370.533 1035.61 370.45 1035.47 370.355 1035.32 370.254 1035.15 370.177 1035.09 370.177 1035.03 370.177 1034.98 370.153 1034.98 370.124 1034.98 370.1 1034.81 370.017 1034.6 369.94 1034.39 369.869 1034.1 369.745 1033.95 369.668 1033.62 369.484 1033.57 369.525 1033.85 369.756 1033.96 369.857 1034.07 370.017 1034.09 370.112 1034.11 370.213 1034.18 370.319 1034.26 370.361 1034.34 370.396 1034.46 370.485 1034.54 370.55 1034.64 370.645 1034.66 370.687 1034.6 370.788 1034.55 370.894 1034.56 370.93 1034.67 371.001 1034.75 371.054 1034.92 371.196 1035.05 371.321 1035.3 371.546 1035.6 371.617 1035.66 371.469 1035.68 371.416 1035.71 371.416 1035.74 371.451 1035.77 371.487 1035.91 371.552 1036.07 371.605 1036.46 371.742 1036.43 371.878 1035.99 372.032 1035.71 372.133 1035.64 372.186 1035.59 372.328 1035.55 372.441 1035.55 372.536 1035.58 372.613 1035.62 372.672 1035.63 372.785 1035.61 372.862 1035.58 372.998 1035.59 373.01 1036.02 373.045 1036.26 373.069 1036.55 373.134 1036.67 373.188 1036.79 373.241 1036.97 373.3 1037.06 373.324 1037.17 373.342 1037.26 373.365 1037.28 373.371 1037.3 373.371 1037.51 373.288 1037.74 373.176ZM1038.1 371.291C1038.41 371.001 1039.33 370.491 1039.63 370.438 1039.91 370.385 1040.31 370.219 1040.49 370.076 1040.75 369.869 1041.03 369.59 1041.03 369.525 1041.03 369.442 1040.86 369.448 1040.81 369.531 1040.78 369.573 1040.66 369.585 1040.51 369.567 1040.32 369.549 1040.22 369.567 1040.19 369.614 1040.12 369.733 1039.74 369.94 1039.59 369.94 1039.51 369.94 1039.39 369.999 1039.33 370.065 1039.19 370.195 1038.56 370.444 1038.5 370.39 1038.49 370.373 1038.41 370.396 1038.34 370.444 1038.27 370.491 1038.16 370.533 1038.09 370.533 1038.03 370.533 1037.87 370.586 1037.74 370.651 1037.62 370.716 1037.45 370.77 1037.37 370.77 1037.28 370.77 1037.12 370.811 1037.03 370.865 1036.85 370.948 1036.85 370.965 1036.94 371.06 1036.99 371.119 1037.18 371.226 1037.35 371.309 1037.52 371.386 1037.68 371.469 1037.69 371.499 1037.73 371.587 1037.83 371.534 1038.1 371.291ZM1039.06 369.377C1039.22 369.294 1039.53 369.182 1039.74 369.134 1039.96 369.087 1040.23 368.992 1040.35 368.933 1040.47 368.867 1040.62 368.814 1040.67 368.814 1040.74 368.814 1040.78 368.791 1040.78 368.755 1040.78 368.725 1040.83 368.696 1040.87 368.696 1041.03 368.696 1041.07 368.5 1041.12 367.54 1041.16 366.574 1041.12 366.266 1040.95 366.266 1040.9 366.266 1040.75 366.343 1040.62 366.438 1040.49 366.533 1040.26 366.669 1040.13 366.734 1039.85 366.871 1038.73 367.273 1038.63 367.273 1038.59 367.273 1038.47 367.356 1038.36 367.451 1038.18 367.623 1038.17 367.641 1038.27 367.742 1038.39 367.878 1038.39 368.127 1038.27 368.228 1038.11 368.352 1038.2 368.867 1038.44 369.229 1038.55 369.389 1038.67 369.519 1038.7 369.519 1038.74 369.525 1038.9 369.46 1039.06 369.377ZM1041.35 369.17C1041.36 369.099 1041.35 369.051 1041.3 369.051 1041.2 369.051 1041.07 369.199 1041.13 369.247 1041.21 369.324 1041.32 369.288 1041.35 369.17ZM1032.86 361.703C1032.86 361.608 1032.84 361.525 1032.8 361.525 1032.77 361.525 1032.74 361.608 1032.74 361.703 1032.74 361.804 1032.77 361.881 1032.8 361.881 1032.84 361.881 1032.86 361.804 1032.86 361.703ZM1034.05 360.832C1034.03 360.814 1034.01 360.832 1034.01 360.874 1034.01 360.915 1034.03 360.933 1034.05 360.915 1034.07 360.891 1034.07 360.856 1034.05 360.832Z" fill="#140B59" fill-rule="evenodd"/></g></svg>