<svg width="46" height="60" xmlns="http://www.w3.org/2000/svg" xmlns:xlink="http://www.w3.org/1999/xlink" overflow="hidden"><defs><clipPath id="clip0"><rect x="91" y="615" width="46" height="60"/></clipPath></defs><g clip-path="url(#clip0)" transform="translate(-91 -615)"><path d="M113.776 616.057C113.019 616.156 112.275 616.204 111.527 616.391 109.423 616.917 107.541 617.991 105.959 619.467 104.947 620.411 104.142 621.604 103.527 622.835 101.328 627.231 102.051 632.777 105.35 636.44 106.377 637.58 107.622 638.543 108.996 639.23 111.209 640.336 113.697 640.711 116.139 640.415 117.858 640.207 119.498 639.577 120.975 638.689 122.162 637.975 123.219 637.014 124.08 635.934 127.358 631.821 127.668 625.802 124.686 621.43 123.861 620.221 122.842 619.157 121.65 618.306 120.526 617.502 119.267 616.894 117.938 616.515 116.637 616.144 115.131 615.879 113.776 616.057M113.664 641.636C113.086 641.712 112.501 641.71 111.921 641.796 110.321 642.031 108.74 642.463 107.252 643.098 99.9409 646.216 95.3373 653.2 93.2084 660.614 92.7571 662.185 92.4575 663.824 92.2829 665.448 92.1948 666.268 92.0686 667.096 92.0672 667.922 92.0659 668.757 91.7746 669.769 92.4151 670.447 93.1575 671.233 94.4301 671.641 95.4417 671.937 97.6403 672.58 99.9127 673.028 102.191 673.272 110.74 674.188 119.414 674.344 127.949 673.134 130.103 672.829 132.316 672.427 134.361 671.671 135.169 671.372 136.211 671.011 136.735 670.283 137.103 669.771 136.993 669.181 136.953 668.597 136.925 668.183 136.957 667.773 136.908 667.36 136.837 666.763 136.838 666.159 136.763 665.561 136.549 663.836 136.234 662.118 135.759 660.445 133.449 652.298 127.707 644.356 119.119 642.209 117.925 641.911 116.744 641.747 115.52 641.663 114.909 641.621 114.276 641.556 113.664 641.636Z" fill="#06D6A0" fill-rule="evenodd"/></g></svg>