<svg width="80" height="57" xmlns="http://www.w3.org/2000/svg" xmlns:xlink="http://www.w3.org/1999/xlink" overflow="hidden"><defs><clipPath id="clip0"><rect x="238" y="616" width="80" height="57"/></clipPath></defs><g clip-path="url(#clip0)" transform="translate(-238 -616)"><path d="M239 669.619 297.848 669.619 297.848 673 239 673ZM273.052 633.207C274.427 633.168 275.772 634.493 276.797 635.261 279.187 637.055 281.554 638.881 283.973 640.636 282.517 641.736 280.724 642.058 279.196 643.048 275.872 645.201 275.638 650.512 280.148 651.515 282.408 652.019 284.741 650.295 286.844 649.71 289.96 648.843 293.939 649.034 296.891 650.297 295.056 654.679 291.279 658.575 288.457 662.373 287.175 664.099 285.862 666.62 283.93 667.673 281.49 669.002 277.111 668.169 274.404 668.169L260.051 668.169C257.806 668.169 255.034 668.601 252.875 667.897 251.302 667.384 249.958 666.144 248.569 665.271 249.914 662.062 252.545 659.356 254.61 656.576L266.449 640.636C267.783 638.84 270.58 633.276 273.052 633.207ZM299.319 622.989C299.748 622.942 300.171 622.963 300.58 623.099 302.645 623.789 304.303 626.925 305.598 628.559 306.951 630.267 310.138 633.023 310.238 635.322 310.339 637.648 307.005 640.152 305.503 641.558 302.792 644.095 299.166 646.936 295.456 647.698 293.093 648.184 290.651 647.669 288.279 648.21 286.111 648.705 284.197 649.938 282.059 650.466 279.742 651.038 277.423 649.471 277.486 646.917 277.589 642.779 285.603 642.024 288.277 639.897 289.175 639.182 290.525 638.115 290.506 636.823 290.488 635.657 289.237 635.11 288.272 634.957 285.863 634.573 283.936 635.939 282.538 637.737 280.745 637.137 276.469 635.134 276.41 632.863 276.344 630.336 280.737 626.788 282.538 625.447 286.451 622.533 291.047 624.291 295.456 623.973 296.683 623.884 298.031 623.13 299.319 622.989ZM307.416 616C309.083 618.546 311.041 620.886 312.955 623.246 313.984 624.515 314.986 625.806 315.971 627.11 316.724 628.106 318.179 629.509 317.982 630.892 317.735 632.618 314.055 635.474 312.344 634.756 310.387 633.934 308.708 630.666 307.416 629.042 305.914 627.154 301.146 623.082 301.619 620.43 301.858 619.092 303.534 618.029 304.544 617.309 305.489 616.634 306.315 616.289 307.416 616Z" fill="#06D6A0" fill-rule="evenodd"/></g></svg>