<svg width="50" height="60" xmlns="http://www.w3.org/2000/svg" xmlns:xlink="http://www.w3.org/1999/xlink" overflow="hidden"><defs><clipPath id="clip0"><rect x="581" y="615" width="50" height="60"/></clipPath></defs><g clip-path="url(#clip0)" transform="translate(-581 -615)"><path d="M605.508 674C607.452 673.391 609.2 672.016 610.866 670.808 614.055 668.494 617.057 665.972 619.804 663.055 623.303 659.338 626.415 655.023 628.275 650.057 629.523 646.724 630 643.218 630 639.647 630 636.965 629.423 634.224 628.508 631.735 622.047 614.162 599.124 610.991 587.33 623.824 585.797 625.492 584.443 627.336 583.457 629.445 582.528 631.432 581.762 633.492 581.383 635.691 580.824 638.937 580.881 642.239 581.526 645.477 583.258 654.161 589.875 660.268 597.28 663.128 599.068 663.819 600.947 664.193 602.829 664.387 603.516 664.459 604.664 664.172 605.201 664.757 605.724 665.326 605.508 666.608 605.508 667.338L605.508 674Z" fill="#06D6A0" fill-rule="evenodd"/></g></svg>