<svg width="143" height="142" xmlns="http://www.w3.org/2000/svg" xmlns:xlink="http://www.w3.org/1999/xlink" overflow="hidden"><defs><clipPath id="clip0"><rect x="261" y="155" width="143" height="142"/></clipPath></defs><g clip-path="url(#clip0)" transform="translate(-261 -155)"><path d="M262 226.5C262 187.564 293.564 156 332.5 156 371.436 156 403 187.564 403 226.5 403 265.436 371.436 297 332.5 297 293.564 297 262 265.436 262 226.5Z" fill="#06D6A0" fill-rule="evenodd"/><path d="M337.046 190.008C340.785 189.893 344.739 191.019 347.569 192.852 350.472 194.733 352.493 197.693 354.433 200.497 355.162 201.551 356.357 202.867 355.678 204.227 354.975 205.636 353.272 205.659 352.274 204.612 350.552 202.805 349.414 200.412 347.73 198.533 344.768 195.226 340.596 194.006 336.284 194.218 332.043 194.426 329.51 198.507 328.001 202.069 326.559 205.475 326.011 209.405 325.761 213.072 325.373 218.763 325.253 224.386 328.789 229.183 329.181 229.714 329.592 230.246 330.076 230.696 330.69 231.267 331.53 231.984 332.393 232.077 334.554 232.312 336.051 228.559 336.895 227.022 339.37 222.516 341.188 217.655 343.885 213.268 344.87 211.665 346.148 209.416 348.152 209.025 351.619 208.35 352.151 212.865 352.485 215.233 353.502 222.436 353.211 229.779 353.211 237.042 357.367 236.859 361.516 234.427 362.856 230.328 363.478 228.423 363.348 226.053 364.19 224.272 364.664 223.27 365.795 222.827 366.827 223.238 368.796 224.022 367.747 226.876 367.494 228.397 366.669 233.354 364.238 237.688 359.437 239.611 358.053 240.165 356.599 240.538 355.156 240.898 354.596 241.038 353.759 241.088 353.411 241.623 353.083 242.126 353.203 242.948 353.128 243.526 352.849 245.675 353.186 247.857 352.983 250.01 352.195 258.377 352.991 267.838 349.075 275.552 347.318 279.012 344.676 281.253 341.343 283.079 338.962 284.382 336.913 285.22 334.144 284.949 329.996 284.544 326.5 282.208 323.639 279.285 321.983 277.593 320.215 275.317 319.552 272.997 321.378 273.269 323.139 273.899 325 273.98 325.207 275.589 327.314 277.163 328.502 278.103 330.436 279.634 333.133 281.189 335.701 281.032 336.656 280.973 337.584 280.445 338.424 280.018 340.647 278.888 342.884 277.406 344.36 275.355 347.258 271.329 347.836 265.823 348.17 261.012 348.601 254.802 349.125 248.58 349.125 242.347 346.593 242.556 344.046 243.62 341.537 244.097 336.862 244.985 331.823 245.007 327.335 246.707 325.473 247.413 323.771 247.945 322.501 249.624 321.185 251.365 320.82 253.955 320.727 256.1 320.681 257.17 320.939 258.443 320.525 259.44 319.888 257.191 318.982 255.048 318.435 252.76 318.151 251.571 317.791 250.24 318.151 249.027 318.926 246.418 321.336 244.777 323.638 243.679 328.634 241.297 334.572 240.866 339.981 240.13 341.993 239.856 343.989 239.049 346.012 239.007 346.016 238.507 346.015 238.09 346.207 237.632L346.207 238.81C347.145 238.489 348.133 238.265 349.125 238.221 349.125 233.651 349.315 229.033 349.118 224.468 348.973 221.13 348.415 217.786 348.347 214.447 346.516 215.979 345.458 219.007 344.408 221.127 342.138 225.711 339.44 230.238 337.452 234.881 337.417 234.512 337.366 234.252 337.257 233.898 336.1 236.048 332.959 236.588 330.837 235.868 326.787 234.493 324.751 230.918 322.993 227.226 321.975 225.087 321.906 222.84 321.637 220.538 321.376 218.304 321.523 216.09 321.675 213.858 322.031 208.613 322.651 202.802 325.278 198.14 326.669 195.67 328.367 193.156 330.837 191.674 332.637 190.594 334.803 190.077 337.046 190.008Z" fill="#FFFFFF" fill-rule="evenodd"/><path d="M353.217 232.585 362.055 232.585C360.766 235.63 356.328 237.233 353.217 237.298ZM367.951 232.524C368.44 232.528 368.941 232.585 369.322 232.585L376 232.585 376 235.727 370.893 235.727 370.893 273.625C370.183 273.625 369.369 273.731 368.751 273.311 367.416 272.401 366.94 270.569 365.198 270.168 363.725 269.83 361.965 270.106 360.484 270.254 357.05 270.597 353.834 271.556 350.467 272.251 350.911 270.102 351.549 267.953 351.809 265.771 352.431 260.545 352.49 255.291 352.987 250.062 353.192 247.91 352.852 245.73 353.134 243.582 353.202 243.06 353.104 242.355 353.336 241.876 353.639 241.25 354.781 241.203 355.378 241.054 357.201 240.598 359.005 240.077 360.68 239.211 362.467 238.287 363.955 236.984 365.111 235.334 365.614 234.617 365.908 233.265 366.65 232.787 366.985 232.571 367.462 232.52 367.951 232.524ZM339.869 232.509C340.429 232.518 341.002 232.585 341.433 232.585L349.093 232.585 349.093 238.476C348.096 238.557 347.113 238.815 346.147 239.065 346.147 237.932 346.092 236.85 345.95 235.727L337.505 235.531C337.505 234.568 337.438 233.373 338.382 232.787 338.763 232.551 339.31 232.501 339.869 232.509ZM337.809 178C339.816 178.007 341.819 178.124 343.79 178.479 349.84 179.57 355.841 182.089 362.055 182.211 363.741 182.244 363.218 180.699 364.162 179.965 364.646 179.588 365.604 179.763 366.18 179.763 366.941 189.406 366.943 199.16 367.358 208.825L364.805 208.825C364.737 207.52 364.052 206.438 363.479 205.29 362.349 203.031 361.162 200.777 359.855 198.614 357.576 194.842 354.856 191.428 351.86 188.207 350.169 186.389 348.49 184.499 346.343 183.192 344.6 182.131 342.634 181.571 340.647 181.213 335.349 180.258 329.546 180.707 325.525 184.675 320.014 190.113 318.127 197.902 317.219 205.29 316.217 213.446 316.195 221.65 316.292 229.836 316.383 237.483 316.44 245.517 318.159 253.007 319.514 258.909 322.198 265.026 326.899 268.993 327.965 269.893 329.118 271.051 330.434 271.569 332.199 272.263 334.646 272.362 336.523 272.233 339.884 272.003 344.589 270.68 345.873 267.145 346.313 265.935 345.95 264.117 345.95 262.825L345.95 252.811 345.95 246.134C345.95 245.401 345.708 244.117 346.152 243.485 346.685 242.727 348.256 242.636 349.093 242.6 349.093 250.018 348.732 257.626 347.773 264.985 347.509 267.013 347.127 268.908 346.567 270.876 346.352 271.631 346.169 272.711 345.593 273.286 344.899 273.979 343.333 274.031 342.415 274.215 339.502 274.797 336.739 275 333.773 275 321.019 275 308.483 271.18 299.616 261.647 294.742 256.407 291.655 248.942 290.227 242.011 289.785 239.864 289.785 237.692 289.526 235.531 287.287 216.812 291.915 195.329 308.83 184.561 313.058 181.87 318.105 180.148 322.971 179.024 325.907 178.345 328.825 178.315 331.809 178.184 333.793 178.098 335.803 177.994 337.809 178Z" fill-rule="evenodd"/></g></svg>